<mxfile host="app.diagrams.net" modified="2022-08-08T07:49:59.795Z" agent="5.0 (Windows NT 10.0; Win64; x64) AppleWebKit/537.36 (KHTML, like Gecko) Chrome/103.0.0.0 Safari/537.36" etag="tv05wJywFEitXULuvSbp" version="20.2.2" type="github">
  <diagram id="kzoT6HLDNZnoZyvvZf-V" name="第 1 页">
    <mxGraphModel dx="1422" dy="706" grid="1" gridSize="10" guides="1" tooltips="1" connect="1" arrows="1" fold="1" page="1" pageScale="1" pageWidth="827" pageHeight="1169" math="0" shadow="0">
      <root>
        <mxCell id="0" />
        <mxCell id="1" parent="0" />
        <mxCell id="UMy-mRe04MTnNOtKZiHi-27" value="" style="shape=table;html=1;whiteSpace=wrap;startSize=0;container=1;collapsible=0;childLayout=tableLayout;comic=1;fontFamily=Helvetica;fontSize=16;fontColor=default;strokeColor=default;fillColor=default;" vertex="1" parent="1">
          <mxGeometry x="280" y="20" width="180" height="120" as="geometry" />
        </mxCell>
        <mxCell id="UMy-mRe04MTnNOtKZiHi-28" value="" style="shape=tableRow;horizontal=0;startSize=0;swimlaneHead=0;swimlaneBody=0;top=0;left=0;bottom=0;right=0;collapsible=0;dropTarget=0;fillColor=none;points=[[0,0.5],[1,0.5]];portConstraint=eastwest;comic=1;fontFamily=Helvetica;fontSize=12;fontColor=default;strokeColor=default;html=1;" vertex="1" parent="UMy-mRe04MTnNOtKZiHi-27">
          <mxGeometry width="180" height="40" as="geometry" />
        </mxCell>
        <mxCell id="UMy-mRe04MTnNOtKZiHi-29" value="&lt;font style=&quot;font-size: 16px;&quot;&gt;1&lt;/font&gt;" style="shape=partialRectangle;html=1;whiteSpace=wrap;connectable=0;fillColor=none;top=0;left=0;bottom=0;right=0;overflow=hidden;comic=1;fontFamily=Helvetica;fontSize=12;fontColor=default;startSize=0;strokeColor=default;" vertex="1" parent="UMy-mRe04MTnNOtKZiHi-28">
          <mxGeometry width="60" height="40" as="geometry">
            <mxRectangle width="60" height="40" as="alternateBounds" />
          </mxGeometry>
        </mxCell>
        <mxCell id="UMy-mRe04MTnNOtKZiHi-30" value="&lt;font style=&quot;font-size: 16px;&quot;&gt;2&lt;/font&gt;" style="shape=partialRectangle;html=1;whiteSpace=wrap;connectable=0;fillColor=none;top=0;left=0;bottom=0;right=0;overflow=hidden;comic=1;fontFamily=Helvetica;fontSize=12;fontColor=default;startSize=0;strokeColor=default;" vertex="1" parent="UMy-mRe04MTnNOtKZiHi-28">
          <mxGeometry x="60" width="60" height="40" as="geometry">
            <mxRectangle width="60" height="40" as="alternateBounds" />
          </mxGeometry>
        </mxCell>
        <mxCell id="UMy-mRe04MTnNOtKZiHi-31" value="&lt;font style=&quot;font-size: 16px;&quot;&gt;3&lt;/font&gt;" style="shape=partialRectangle;html=1;whiteSpace=wrap;connectable=0;fillColor=none;top=0;left=0;bottom=0;right=0;overflow=hidden;comic=1;fontFamily=Helvetica;fontSize=12;fontColor=default;startSize=0;strokeColor=default;" vertex="1" parent="UMy-mRe04MTnNOtKZiHi-28">
          <mxGeometry x="120" width="60" height="40" as="geometry">
            <mxRectangle width="60" height="40" as="alternateBounds" />
          </mxGeometry>
        </mxCell>
        <mxCell id="UMy-mRe04MTnNOtKZiHi-32" value="" style="shape=tableRow;horizontal=0;startSize=0;swimlaneHead=0;swimlaneBody=0;top=0;left=0;bottom=0;right=0;collapsible=0;dropTarget=0;fillColor=none;points=[[0,0.5],[1,0.5]];portConstraint=eastwest;comic=1;fontFamily=Helvetica;fontSize=16;fontColor=default;strokeColor=default;html=1;" vertex="1" parent="UMy-mRe04MTnNOtKZiHi-27">
          <mxGeometry y="40" width="180" height="40" as="geometry" />
        </mxCell>
        <mxCell id="UMy-mRe04MTnNOtKZiHi-33" value="3" style="shape=partialRectangle;html=1;whiteSpace=wrap;connectable=0;fillColor=none;top=0;left=0;bottom=0;right=0;overflow=hidden;comic=1;fontFamily=Helvetica;fontSize=16;fontColor=default;startSize=0;strokeColor=default;" vertex="1" parent="UMy-mRe04MTnNOtKZiHi-32">
          <mxGeometry width="60" height="40" as="geometry">
            <mxRectangle width="60" height="40" as="alternateBounds" />
          </mxGeometry>
        </mxCell>
        <mxCell id="UMy-mRe04MTnNOtKZiHi-34" value="4" style="shape=partialRectangle;html=1;whiteSpace=wrap;connectable=0;fillColor=none;top=0;left=0;bottom=0;right=0;overflow=hidden;comic=1;fontFamily=Helvetica;fontSize=16;fontColor=default;startSize=0;strokeColor=default;" vertex="1" parent="UMy-mRe04MTnNOtKZiHi-32">
          <mxGeometry x="60" width="60" height="40" as="geometry">
            <mxRectangle width="60" height="40" as="alternateBounds" />
          </mxGeometry>
        </mxCell>
        <mxCell id="UMy-mRe04MTnNOtKZiHi-35" value="5" style="shape=partialRectangle;html=1;whiteSpace=wrap;connectable=0;fillColor=none;top=0;left=0;bottom=0;right=0;overflow=hidden;comic=1;fontFamily=Helvetica;fontSize=16;fontColor=default;startSize=0;strokeColor=default;" vertex="1" parent="UMy-mRe04MTnNOtKZiHi-32">
          <mxGeometry x="120" width="60" height="40" as="geometry">
            <mxRectangle width="60" height="40" as="alternateBounds" />
          </mxGeometry>
        </mxCell>
        <mxCell id="UMy-mRe04MTnNOtKZiHi-36" value="" style="shape=tableRow;horizontal=0;startSize=0;swimlaneHead=0;swimlaneBody=0;top=0;left=0;bottom=0;right=0;collapsible=0;dropTarget=0;fillColor=none;points=[[0,0.5],[1,0.5]];portConstraint=eastwest;comic=1;fontFamily=Helvetica;fontSize=16;fontColor=default;strokeColor=default;html=1;" vertex="1" parent="UMy-mRe04MTnNOtKZiHi-27">
          <mxGeometry y="80" width="180" height="40" as="geometry" />
        </mxCell>
        <mxCell id="UMy-mRe04MTnNOtKZiHi-37" value="-2" style="shape=partialRectangle;html=1;whiteSpace=wrap;connectable=0;fillColor=none;top=0;left=0;bottom=0;right=0;overflow=hidden;comic=1;fontFamily=Helvetica;fontSize=16;fontColor=default;startSize=0;strokeColor=default;" vertex="1" parent="UMy-mRe04MTnNOtKZiHi-36">
          <mxGeometry width="60" height="40" as="geometry">
            <mxRectangle width="60" height="40" as="alternateBounds" />
          </mxGeometry>
        </mxCell>
        <mxCell id="UMy-mRe04MTnNOtKZiHi-38" value="-2" style="shape=partialRectangle;html=1;whiteSpace=wrap;connectable=0;fillColor=none;top=0;left=0;bottom=0;right=0;overflow=hidden;comic=1;fontFamily=Helvetica;fontSize=16;fontColor=default;startSize=0;strokeColor=default;" vertex="1" parent="UMy-mRe04MTnNOtKZiHi-36">
          <mxGeometry x="60" width="60" height="40" as="geometry">
            <mxRectangle width="60" height="40" as="alternateBounds" />
          </mxGeometry>
        </mxCell>
        <mxCell id="UMy-mRe04MTnNOtKZiHi-39" value="-2" style="shape=partialRectangle;html=1;whiteSpace=wrap;connectable=0;fillColor=none;top=0;left=0;bottom=0;right=0;overflow=hidden;pointerEvents=1;comic=1;fontFamily=Helvetica;fontSize=16;fontColor=default;startSize=0;strokeColor=default;" vertex="1" parent="UMy-mRe04MTnNOtKZiHi-36">
          <mxGeometry x="120" width="60" height="40" as="geometry">
            <mxRectangle width="60" height="40" as="alternateBounds" />
          </mxGeometry>
        </mxCell>
        <mxCell id="UMy-mRe04MTnNOtKZiHi-65" value="" style="shape=table;html=1;whiteSpace=wrap;startSize=0;container=1;collapsible=0;childLayout=tableLayout;comic=1;fontFamily=Helvetica;fontSize=16;fontColor=default;strokeColor=default;fillColor=default;" vertex="1" parent="1">
          <mxGeometry x="460" y="20" width="180" height="120" as="geometry" />
        </mxCell>
        <mxCell id="UMy-mRe04MTnNOtKZiHi-66" value="" style="shape=tableRow;horizontal=0;startSize=0;swimlaneHead=0;swimlaneBody=0;top=0;left=0;bottom=0;right=0;collapsible=0;dropTarget=0;fillColor=none;points=[[0,0.5],[1,0.5]];portConstraint=eastwest;comic=1;fontFamily=Helvetica;fontSize=16;fontColor=default;strokeColor=default;html=1;" vertex="1" parent="UMy-mRe04MTnNOtKZiHi-65">
          <mxGeometry width="180" height="40" as="geometry" />
        </mxCell>
        <mxCell id="UMy-mRe04MTnNOtKZiHi-67" value="4" style="shape=partialRectangle;html=1;whiteSpace=wrap;connectable=0;fillColor=none;top=0;left=0;bottom=0;right=0;overflow=hidden;comic=1;fontFamily=Helvetica;fontSize=16;fontColor=default;startSize=0;strokeColor=default;" vertex="1" parent="UMy-mRe04MTnNOtKZiHi-66">
          <mxGeometry width="60" height="40" as="geometry">
            <mxRectangle width="60" height="40" as="alternateBounds" />
          </mxGeometry>
        </mxCell>
        <mxCell id="UMy-mRe04MTnNOtKZiHi-68" value="5" style="shape=partialRectangle;html=1;whiteSpace=wrap;connectable=0;fillColor=none;top=0;left=0;bottom=0;right=0;overflow=hidden;comic=1;fontFamily=Helvetica;fontSize=16;fontColor=default;startSize=0;strokeColor=default;" vertex="1" parent="UMy-mRe04MTnNOtKZiHi-66">
          <mxGeometry x="60" width="60" height="40" as="geometry">
            <mxRectangle width="60" height="40" as="alternateBounds" />
          </mxGeometry>
        </mxCell>
        <mxCell id="UMy-mRe04MTnNOtKZiHi-69" value="gas" style="shape=partialRectangle;html=1;whiteSpace=wrap;connectable=0;fillColor=none;top=0;left=0;bottom=0;right=0;overflow=hidden;comic=1;fontFamily=Helvetica;fontSize=16;fontColor=default;startSize=0;strokeColor=default;" vertex="1" parent="UMy-mRe04MTnNOtKZiHi-66">
          <mxGeometry x="120" width="60" height="40" as="geometry">
            <mxRectangle width="60" height="40" as="alternateBounds" />
          </mxGeometry>
        </mxCell>
        <mxCell id="UMy-mRe04MTnNOtKZiHi-70" value="" style="shape=tableRow;horizontal=0;startSize=0;swimlaneHead=0;swimlaneBody=0;top=0;left=0;bottom=0;right=0;collapsible=0;dropTarget=0;fillColor=none;points=[[0,0.5],[1,0.5]];portConstraint=eastwest;comic=1;fontFamily=Helvetica;fontSize=16;fontColor=default;strokeColor=default;html=1;" vertex="1" parent="UMy-mRe04MTnNOtKZiHi-65">
          <mxGeometry y="40" width="180" height="40" as="geometry" />
        </mxCell>
        <mxCell id="UMy-mRe04MTnNOtKZiHi-71" value="1" style="shape=partialRectangle;html=1;whiteSpace=wrap;connectable=0;fillColor=none;top=0;left=0;bottom=0;right=0;overflow=hidden;comic=1;fontFamily=Helvetica;fontSize=16;fontColor=default;startSize=0;strokeColor=default;" vertex="1" parent="UMy-mRe04MTnNOtKZiHi-70">
          <mxGeometry width="60" height="40" as="geometry">
            <mxRectangle width="60" height="40" as="alternateBounds" />
          </mxGeometry>
        </mxCell>
        <mxCell id="UMy-mRe04MTnNOtKZiHi-72" value="2" style="shape=partialRectangle;html=1;whiteSpace=wrap;connectable=0;fillColor=none;top=0;left=0;bottom=0;right=0;overflow=hidden;comic=1;fontFamily=Helvetica;fontSize=16;fontColor=default;startSize=0;strokeColor=default;" vertex="1" parent="UMy-mRe04MTnNOtKZiHi-70">
          <mxGeometry x="60" width="60" height="40" as="geometry">
            <mxRectangle width="60" height="40" as="alternateBounds" />
          </mxGeometry>
        </mxCell>
        <mxCell id="UMy-mRe04MTnNOtKZiHi-73" value="cost" style="shape=partialRectangle;html=1;whiteSpace=wrap;connectable=0;fillColor=none;top=0;left=0;bottom=0;right=0;overflow=hidden;comic=1;fontFamily=Helvetica;fontSize=16;fontColor=default;startSize=0;strokeColor=default;" vertex="1" parent="UMy-mRe04MTnNOtKZiHi-70">
          <mxGeometry x="120" width="60" height="40" as="geometry">
            <mxRectangle width="60" height="40" as="alternateBounds" />
          </mxGeometry>
        </mxCell>
        <mxCell id="UMy-mRe04MTnNOtKZiHi-74" value="" style="shape=tableRow;horizontal=0;startSize=0;swimlaneHead=0;swimlaneBody=0;top=0;left=0;bottom=0;right=0;collapsible=0;dropTarget=0;fillColor=none;points=[[0,0.5],[1,0.5]];portConstraint=eastwest;comic=1;fontFamily=Helvetica;fontSize=16;fontColor=default;strokeColor=default;html=1;" vertex="1" parent="UMy-mRe04MTnNOtKZiHi-65">
          <mxGeometry y="80" width="180" height="40" as="geometry" />
        </mxCell>
        <mxCell id="UMy-mRe04MTnNOtKZiHi-75" value="&lt;font color=&quot;#ea6b66&quot;&gt;3&lt;/font&gt;" style="shape=partialRectangle;html=1;whiteSpace=wrap;connectable=0;fillColor=none;top=0;left=0;bottom=0;right=0;overflow=hidden;comic=1;fontFamily=Helvetica;fontSize=16;fontColor=default;startSize=0;strokeColor=default;" vertex="1" parent="UMy-mRe04MTnNOtKZiHi-74">
          <mxGeometry width="60" height="40" as="geometry">
            <mxRectangle width="60" height="40" as="alternateBounds" />
          </mxGeometry>
        </mxCell>
        <mxCell id="UMy-mRe04MTnNOtKZiHi-76" value="3" style="shape=partialRectangle;html=1;whiteSpace=wrap;connectable=0;fillColor=none;top=0;left=0;bottom=0;right=0;overflow=hidden;comic=1;fontFamily=Helvetica;fontSize=16;fontColor=default;startSize=0;strokeColor=default;" vertex="1" parent="UMy-mRe04MTnNOtKZiHi-74">
          <mxGeometry x="60" width="60" height="40" as="geometry">
            <mxRectangle width="60" height="40" as="alternateBounds" />
          </mxGeometry>
        </mxCell>
        <mxCell id="UMy-mRe04MTnNOtKZiHi-77" value="left" style="shape=partialRectangle;html=1;whiteSpace=wrap;connectable=0;fillColor=none;top=0;left=0;bottom=0;right=0;overflow=hidden;pointerEvents=1;comic=1;fontFamily=Helvetica;fontSize=16;fontColor=default;startSize=0;strokeColor=default;" vertex="1" parent="UMy-mRe04MTnNOtKZiHi-74">
          <mxGeometry x="120" width="60" height="40" as="geometry">
            <mxRectangle width="60" height="40" as="alternateBounds" />
          </mxGeometry>
        </mxCell>
        <mxCell id="UMy-mRe04MTnNOtKZiHi-86" value="1" style="rounded=0;whiteSpace=wrap;html=1;comic=1;fontFamily=Helvetica;fontSize=16;fontColor=#000000;startSize=0;strokeColor=default;fillColor=default;" vertex="1" parent="1">
          <mxGeometry x="380" y="190" width="50" height="30" as="geometry" />
        </mxCell>
        <mxCell id="UMy-mRe04MTnNOtKZiHi-88" value="3" style="rounded=0;whiteSpace=wrap;html=1;comic=1;fontFamily=Helvetica;fontSize=16;fontColor=#000000;startSize=0;strokeColor=default;fillColor=default;" vertex="1" parent="1">
          <mxGeometry x="380" y="160" width="50" height="30" as="geometry" />
        </mxCell>
        <mxCell id="UMy-mRe04MTnNOtKZiHi-89" value="1" style="rounded=0;whiteSpace=wrap;html=1;comic=1;fontFamily=Helvetica;fontSize=16;fontColor=#000000;startSize=0;strokeColor=default;fillColor=default;" vertex="1" parent="1">
          <mxGeometry x="430" y="190" width="50" height="30" as="geometry" />
        </mxCell>
        <mxCell id="UMy-mRe04MTnNOtKZiHi-90" value="3" style="rounded=0;whiteSpace=wrap;html=1;comic=1;fontFamily=Helvetica;fontSize=16;fontColor=#000000;startSize=0;strokeColor=default;fillColor=default;" vertex="1" parent="1">
          <mxGeometry x="430" y="160" width="50" height="30" as="geometry" />
        </mxCell>
        <mxCell id="UMy-mRe04MTnNOtKZiHi-91" value="1" style="rounded=0;whiteSpace=wrap;html=1;comic=1;fontFamily=Helvetica;fontSize=16;fontColor=#000000;startSize=0;strokeColor=default;fillColor=default;" vertex="1" parent="1">
          <mxGeometry x="280" y="190" width="50" height="30" as="geometry" />
        </mxCell>
        <mxCell id="UMy-mRe04MTnNOtKZiHi-92" value="1" style="rounded=0;whiteSpace=wrap;html=1;comic=1;fontFamily=Helvetica;fontSize=16;fontColor=#000000;startSize=0;strokeColor=default;fillColor=default;" vertex="1" parent="1">
          <mxGeometry x="280" y="160" width="50" height="30" as="geometry" />
        </mxCell>
        <mxCell id="UMy-mRe04MTnNOtKZiHi-93" value="1" style="rounded=0;whiteSpace=wrap;html=1;comic=1;fontFamily=Helvetica;fontSize=16;fontColor=#000000;startSize=0;strokeColor=default;fillColor=default;" vertex="1" parent="1">
          <mxGeometry x="330" y="190" width="50" height="30" as="geometry" />
        </mxCell>
        <mxCell id="UMy-mRe04MTnNOtKZiHi-94" value="3" style="rounded=0;whiteSpace=wrap;html=1;comic=1;fontFamily=Helvetica;fontSize=16;fontColor=#000000;startSize=0;strokeColor=default;fillColor=default;" vertex="1" parent="1">
          <mxGeometry x="330" y="160" width="50" height="30" as="geometry" />
        </mxCell>
        <mxCell id="UMy-mRe04MTnNOtKZiHi-95" value="4" style="rounded=0;whiteSpace=wrap;html=1;comic=1;fontFamily=Helvetica;fontSize=16;fontColor=#000000;startSize=0;strokeColor=default;fillColor=default;" vertex="1" parent="1">
          <mxGeometry x="580" y="160" width="50" height="30" as="geometry" />
        </mxCell>
        <mxCell id="UMy-mRe04MTnNOtKZiHi-97" value="2" style="rounded=0;whiteSpace=wrap;html=1;comic=1;fontFamily=Helvetica;fontSize=16;fontColor=#000000;startSize=0;strokeColor=default;fillColor=default;" vertex="1" parent="1">
          <mxGeometry x="480" y="160" width="50" height="30" as="geometry" />
        </mxCell>
        <mxCell id="UMy-mRe04MTnNOtKZiHi-98" value="3" style="rounded=0;whiteSpace=wrap;html=1;comic=1;fontFamily=Helvetica;fontSize=16;fontColor=#000000;startSize=0;strokeColor=default;fillColor=default;" vertex="1" parent="1">
          <mxGeometry x="530" y="160" width="50" height="30" as="geometry" />
        </mxCell>
        <mxCell id="UMy-mRe04MTnNOtKZiHi-99" value="1&lt;span style=&quot;color: rgba(0, 0, 0, 0); font-family: monospace; font-size: 0px; text-align: start;&quot;&gt;%3CmxGraphModel%3E%3Croot%3E%3CmxCell%20id%3D%220%22%2F%3E%3CmxCell%20id%3D%221%22%20parent%3D%220%22%2F%3E%3CmxCell%20id%3D%222%22%20value%3D%22%22%20style%3D%22rounded%3D0%3BwhiteSpace%3Dwrap%3Bhtml%3D1%3Bcomic%3D1%3BfontFamily%3DHelvetica%3BfontSize%3D16%3BfontColor%3D%23000000%3BstartSize%3D0%3BstrokeColor%3Ddefault%3BfillColor%3Ddefault%3B%22%20vertex%3D%221%22%20parent%3D%221%22%3E%3CmxGeometry%20x%3D%22380%22%20y%3D%22360%22%20width%3D%2250%22%20height%3D%2230%22%20as%3D%22geometry%22%2F%3E%3C%2FmxCell%3E%3CmxCell%20id%3D%223%22%20value%3D%22%22%20style%3D%22rounded%3D0%3BwhiteSpace%3Dwrap%3Bhtml%3D1%3Bcomic%3D1%3BfontFamily%3DHelvetica%3BfontSize%3D16%3BfontColor%3D%23000000%3BstartSize%3D0%3BstrokeColor%3Ddefault%3BfillColor%3Ddefault%3B%22%20vertex%3D%221%22%20parent%3D%221%22%3E%3CmxGeometry%20x%3D%22430%22%20y%3D%22360%22%20width%3D%2250%22%20height%3D%2230%22%20as%3D%22geometry%22%2F%3E%3C%2FmxCell%3E%3CmxCell%20id%3D%224%22%20value%3D%22%22%20style%3D%22rounded%3D0%3BwhiteSpace%3Dwrap%3Bhtml%3D1%3Bcomic%3D1%3BfontFamily%3DHelvetica%3BfontSize%3D16%3BfontColor%3D%23000000%3BstartSize%3D0%3BstrokeColor%3Ddefault%3BfillColor%3Ddefault%3B%22%20vertex%3D%221%22%20parent%3D%221%22%3E%3CmxGeometry%20x%3D%22280%22%20y%3D%22360%22%20width%3D%2250%22%20height%3D%2230%22%20as%3D%22geometry%22%2F%3E%3C%2FmxCell%3E%3CmxCell%20id%3D%225%22%20value%3D%22%22%20style%3D%22rounded%3D0%3BwhiteSpace%3Dwrap%3Bhtml%3D1%3Bcomic%3D1%3BfontFamily%3DHelvetica%3BfontSize%3D16%3BfontColor%3D%23000000%3BstartSize%3D0%3BstrokeColor%3Ddefault%3BfillColor%3Ddefault%3B%22%20vertex%3D%221%22%20parent%3D%221%22%3E%3CmxGeometry%20x%3D%22330%22%20y%3D%22360%22%20width%3D%2250%22%20height%3D%2230%22%20as%3D%22geometry%22%2F%3E%3C%2FmxCell%3E%3CmxCell%20id%3D%226%22%20value%3D%22%22%20style%3D%22rounded%3D0%3BwhiteSpace%3Dwrap%3Bhtml%3D1%3Bcomic%3D1%3BfontFamily%3DHelvetica%3BfontSize%3D16%3BfontColor%3D%23000000%3BstartSize%3D0%3BstrokeColor%3Ddefault%3BfillColor%3Ddefault%3B%22%20vertex%3D%221%22%20parent%3D%221%22%3E%3CmxGeometry%20x%3D%22580%22%20y%3D%22360%22%20width%3D%2250%22%20height%3D%2230%22%20as%3D%22geometry%22%2F%3E%3C%2FmxCell%3E%3CmxCell%20id%3D%227%22%20value%3D%22%22%20style%3D%22rounded%3D0%3BwhiteSpace%3Dwrap%3Bhtml%3D1%3Bcomic%3D1%3BfontFamily%3DHelvetica%3BfontSize%3D16%3BfontColor%3D%23000000%3BstartSize%3D0%3BstrokeColor%3Ddefault%3BfillColor%3Ddefault%3B%22%20vertex%3D%221%22%20parent%3D%221%22%3E%3CmxGeometry%20x%3D%22480%22%20y%3D%22360%22%20width%3D%2250%22%20height%3D%2230%22%20as%3D%22geometry%22%2F%3E%3C%2FmxCell%3E%3CmxCell%20id%3D%228%22%20value%3D%22%22%20style%3D%22rounded%3D0%3BwhiteSpace%3Dwrap%3Bhtml%3D1%3Bcomic%3D1%3BfontFamily%3DHelvetica%3BfontSize%3D16%3BfontColor%3D%23000000%3BstartSize%3D0%3BstrokeColor%3Ddefault%3BfillColor%3Ddefault%3B%22%20vertex%3D%221%22%20parent%3D%221%22%3E%3CmxGeometry%20x%3D%22530%22%20y%3D%22360%22%20width%3D%2250%22%20height%3D%2230%22%20as%3D%22geometry%22%2F%3E%3C%2FmxCell%3E%3C%2Froot%3E%3C%2FmxGraphModel%3E&lt;/span&gt;" style="rounded=0;whiteSpace=wrap;html=1;comic=1;fontFamily=Helvetica;fontSize=16;fontColor=#000000;startSize=0;strokeColor=default;fillColor=default;" vertex="1" parent="1">
          <mxGeometry x="580" y="190" width="50" height="30" as="geometry" />
        </mxCell>
        <mxCell id="UMy-mRe04MTnNOtKZiHi-101" value="1" style="rounded=0;whiteSpace=wrap;html=1;comic=1;fontFamily=Helvetica;fontSize=16;fontColor=#000000;startSize=0;strokeColor=default;fillColor=default;" vertex="1" parent="1">
          <mxGeometry x="480" y="190" width="50" height="30" as="geometry" />
        </mxCell>
        <mxCell id="UMy-mRe04MTnNOtKZiHi-102" value="1" style="rounded=0;whiteSpace=wrap;html=1;comic=1;fontFamily=Helvetica;fontSize=16;fontColor=#000000;startSize=0;strokeColor=default;fillColor=default;" vertex="1" parent="1">
          <mxGeometry x="530" y="190" width="50" height="30" as="geometry" />
        </mxCell>
        <mxCell id="UMy-mRe04MTnNOtKZiHi-103" value="1" style="rounded=0;whiteSpace=wrap;html=1;comic=1;fontFamily=Helvetica;fontSize=16;fontColor=#000000;startSize=0;strokeColor=default;fillColor=default;" vertex="1" parent="1">
          <mxGeometry x="380" y="220" width="50" height="30" as="geometry" />
        </mxCell>
        <mxCell id="UMy-mRe04MTnNOtKZiHi-104" value="2" style="rounded=0;whiteSpace=wrap;html=1;comic=1;fontFamily=Helvetica;fontSize=16;fontColor=#000000;startSize=0;strokeColor=default;fillColor=default;" vertex="1" parent="1">
          <mxGeometry x="430" y="220" width="50" height="30" as="geometry" />
        </mxCell>
        <mxCell id="UMy-mRe04MTnNOtKZiHi-105" value="1" style="rounded=0;whiteSpace=wrap;html=1;comic=1;fontFamily=Helvetica;fontSize=16;fontColor=#000000;startSize=0;strokeColor=default;fillColor=default;" vertex="1" parent="1">
          <mxGeometry x="280" y="220" width="50" height="30" as="geometry" />
        </mxCell>
        <mxCell id="UMy-mRe04MTnNOtKZiHi-106" value="2" style="rounded=0;whiteSpace=wrap;html=1;comic=1;fontFamily=Helvetica;fontSize=16;fontColor=#000000;startSize=0;strokeColor=default;fillColor=default;" vertex="1" parent="1">
          <mxGeometry x="330" y="220" width="50" height="30" as="geometry" />
        </mxCell>
        <mxCell id="UMy-mRe04MTnNOtKZiHi-107" value="3" style="rounded=0;whiteSpace=wrap;html=1;comic=1;fontFamily=Helvetica;fontSize=16;fontColor=#000000;startSize=0;strokeColor=default;fillColor=default;" vertex="1" parent="1">
          <mxGeometry x="580" y="220" width="50" height="30" as="geometry" />
        </mxCell>
        <mxCell id="UMy-mRe04MTnNOtKZiHi-108" value="1" style="rounded=0;whiteSpace=wrap;html=1;comic=1;fontFamily=Helvetica;fontSize=16;fontColor=#000000;startSize=0;strokeColor=default;fillColor=default;" vertex="1" parent="1">
          <mxGeometry x="480" y="220" width="50" height="30" as="geometry" />
        </mxCell>
        <mxCell id="UMy-mRe04MTnNOtKZiHi-109" value="2" style="rounded=0;whiteSpace=wrap;html=1;comic=1;fontFamily=Helvetica;fontSize=16;fontColor=#000000;startSize=0;strokeColor=default;fillColor=default;" vertex="1" parent="1">
          <mxGeometry x="530" y="220" width="50" height="30" as="geometry" />
        </mxCell>
        <mxCell id="UMy-mRe04MTnNOtKZiHi-110" value="1" style="rounded=0;whiteSpace=wrap;html=1;comic=1;fontFamily=Helvetica;fontSize=16;fontColor=#000000;startSize=0;strokeColor=default;fillColor=default;" vertex="1" parent="1">
          <mxGeometry x="380" y="250" width="50" height="30" as="geometry" />
        </mxCell>
        <mxCell id="UMy-mRe04MTnNOtKZiHi-111" value="2" style="rounded=0;whiteSpace=wrap;html=1;comic=1;fontFamily=Helvetica;fontSize=16;fontColor=#000000;startSize=0;strokeColor=default;fillColor=default;" vertex="1" parent="1">
          <mxGeometry x="430" y="250" width="50" height="30" as="geometry" />
        </mxCell>
        <mxCell id="UMy-mRe04MTnNOtKZiHi-112" value="1" style="rounded=0;whiteSpace=wrap;html=1;comic=1;fontFamily=Helvetica;fontSize=16;fontColor=#000000;startSize=0;strokeColor=default;fillColor=default;" vertex="1" parent="1">
          <mxGeometry x="280" y="250" width="50" height="30" as="geometry" />
        </mxCell>
        <mxCell id="UMy-mRe04MTnNOtKZiHi-113" value="2" style="rounded=0;whiteSpace=wrap;html=1;comic=1;fontFamily=Helvetica;fontSize=16;fontColor=#000000;startSize=0;strokeColor=default;fillColor=default;" vertex="1" parent="1">
          <mxGeometry x="330" y="250" width="50" height="30" as="geometry" />
        </mxCell>
        <mxCell id="UMy-mRe04MTnNOtKZiHi-127" style="edgeStyle=orthogonalEdgeStyle;rounded=0;orthogonalLoop=1;jettySize=auto;html=1;exitX=0.5;exitY=1;exitDx=0;exitDy=0;fontFamily=Helvetica;fontSize=16;fontColor=#000000;startSize=0;" edge="1" parent="1" source="UMy-mRe04MTnNOtKZiHi-114" target="UMy-mRe04MTnNOtKZiHi-128">
          <mxGeometry relative="1" as="geometry">
            <mxPoint x="605" y="310" as="targetPoint" />
            <Array as="points">
              <mxPoint x="605" y="320" />
              <mxPoint x="605" y="320" />
            </Array>
          </mxGeometry>
        </mxCell>
        <mxCell id="UMy-mRe04MTnNOtKZiHi-114" value="3" style="rounded=0;whiteSpace=wrap;html=1;comic=1;fontFamily=Helvetica;fontSize=16;fontColor=#000000;startSize=0;strokeColor=default;fillColor=default;" vertex="1" parent="1">
          <mxGeometry x="580" y="250" width="50" height="30" as="geometry" />
        </mxCell>
        <mxCell id="UMy-mRe04MTnNOtKZiHi-115" value="1" style="rounded=0;whiteSpace=wrap;html=1;comic=1;fontFamily=Helvetica;fontSize=16;fontColor=#000000;startSize=0;strokeColor=default;fillColor=default;" vertex="1" parent="1">
          <mxGeometry x="480" y="250" width="50" height="30" as="geometry" />
        </mxCell>
        <mxCell id="UMy-mRe04MTnNOtKZiHi-116" value="2" style="rounded=0;whiteSpace=wrap;html=1;comic=1;fontFamily=Helvetica;fontSize=16;fontColor=#000000;startSize=0;strokeColor=default;fillColor=default;" vertex="1" parent="1">
          <mxGeometry x="530" y="250" width="50" height="30" as="geometry" />
        </mxCell>
        <mxCell id="UMy-mRe04MTnNOtKZiHi-117" value="1" style="rounded=0;whiteSpace=wrap;html=1;comic=1;fontFamily=Helvetica;fontSize=16;fontColor=#000000;startSize=0;strokeColor=default;fillColor=default;" vertex="1" parent="1">
          <mxGeometry x="630" y="160" width="50" height="30" as="geometry" />
        </mxCell>
        <mxCell id="UMy-mRe04MTnNOtKZiHi-118" value="1&lt;span style=&quot;color: rgba(0, 0, 0, 0); font-family: monospace; font-size: 0px; text-align: start;&quot;&gt;%3CmxGraphModel%3E%3Croot%3E%3CmxCell%20id%3D%220%22%2F%3E%3CmxCell%20id%3D%221%22%20parent%3D%220%22%2F%3E%3CmxCell%20id%3D%222%22%20value%3D%22%22%20style%3D%22rounded%3D0%3BwhiteSpace%3Dwrap%3Bhtml%3D1%3Bcomic%3D1%3BfontFamily%3DHelvetica%3BfontSize%3D16%3BfontColor%3D%23000000%3BstartSize%3D0%3BstrokeColor%3Ddefault%3BfillColor%3Ddefault%3B%22%20vertex%3D%221%22%20parent%3D%221%22%3E%3CmxGeometry%20x%3D%22380%22%20y%3D%22360%22%20width%3D%2250%22%20height%3D%2230%22%20as%3D%22geometry%22%2F%3E%3C%2FmxCell%3E%3CmxCell%20id%3D%223%22%20value%3D%22%22%20style%3D%22rounded%3D0%3BwhiteSpace%3Dwrap%3Bhtml%3D1%3Bcomic%3D1%3BfontFamily%3DHelvetica%3BfontSize%3D16%3BfontColor%3D%23000000%3BstartSize%3D0%3BstrokeColor%3Ddefault%3BfillColor%3Ddefault%3B%22%20vertex%3D%221%22%20parent%3D%221%22%3E%3CmxGeometry%20x%3D%22430%22%20y%3D%22360%22%20width%3D%2250%22%20height%3D%2230%22%20as%3D%22geometry%22%2F%3E%3C%2FmxCell%3E%3CmxCell%20id%3D%224%22%20value%3D%22%22%20style%3D%22rounded%3D0%3BwhiteSpace%3Dwrap%3Bhtml%3D1%3Bcomic%3D1%3BfontFamily%3DHelvetica%3BfontSize%3D16%3BfontColor%3D%23000000%3BstartSize%3D0%3BstrokeColor%3Ddefault%3BfillColor%3Ddefault%3B%22%20vertex%3D%221%22%20parent%3D%221%22%3E%3CmxGeometry%20x%3D%22280%22%20y%3D%22360%22%20width%3D%2250%22%20height%3D%2230%22%20as%3D%22geometry%22%2F%3E%3C%2FmxCell%3E%3CmxCell%20id%3D%225%22%20value%3D%22%22%20style%3D%22rounded%3D0%3BwhiteSpace%3Dwrap%3Bhtml%3D1%3Bcomic%3D1%3BfontFamily%3DHelvetica%3BfontSize%3D16%3BfontColor%3D%23000000%3BstartSize%3D0%3BstrokeColor%3Ddefault%3BfillColor%3Ddefault%3B%22%20vertex%3D%221%22%20parent%3D%221%22%3E%3CmxGeometry%20x%3D%22330%22%20y%3D%22360%22%20width%3D%2250%22%20height%3D%2230%22%20as%3D%22geometry%22%2F%3E%3C%2FmxCell%3E%3CmxCell%20id%3D%226%22%20value%3D%22%22%20style%3D%22rounded%3D0%3BwhiteSpace%3Dwrap%3Bhtml%3D1%3Bcomic%3D1%3BfontFamily%3DHelvetica%3BfontSize%3D16%3BfontColor%3D%23000000%3BstartSize%3D0%3BstrokeColor%3Ddefault%3BfillColor%3Ddefault%3B%22%20vertex%3D%221%22%20parent%3D%221%22%3E%3CmxGeometry%20x%3D%22580%22%20y%3D%22360%22%20width%3D%2250%22%20height%3D%2230%22%20as%3D%22geometry%22%2F%3E%3C%2FmxCell%3E%3CmxCell%20id%3D%227%22%20value%3D%22%22%20style%3D%22rounded%3D0%3BwhiteSpace%3Dwrap%3Bhtml%3D1%3Bcomic%3D1%3BfontFamily%3DHelvetica%3BfontSize%3D16%3BfontColor%3D%23000000%3BstartSize%3D0%3BstrokeColor%3Ddefault%3BfillColor%3Ddefault%3B%22%20vertex%3D%221%22%20parent%3D%221%22%3E%3CmxGeometry%20x%3D%22480%22%20y%3D%22360%22%20width%3D%2250%22%20height%3D%2230%22%20as%3D%22geometry%22%2F%3E%3C%2FmxCell%3E%3CmxCell%20id%3D%228%22%20value%3D%22%22%20style%3D%22rounded%3D0%3BwhiteSpace%3Dwrap%3Bhtml%3D1%3Bcomic%3D1%3BfontFamily%3DHelvetica%3BfontSize%3D16%3BfontColor%3D%23000000%3BstartSize%3D0%3BstrokeColor%3Ddefault%3BfillColor%3Ddefault%3B%22%20vertex%3D%221%22%20parent%3D%221%22%3E%3CmxGeometry%20x%3D%22530%22%20y%3D%22360%22%20width%3D%2250%22%20height%3D%2230%22%20as%3D%22geometry%22%2F%3E%3C%2FmxCell%3E%3C%2Froot%3E%3C%2FmxGraphModel%3E&lt;/span&gt;" style="rounded=0;whiteSpace=wrap;html=1;comic=1;fontFamily=Helvetica;fontSize=16;fontColor=#000000;startSize=0;strokeColor=default;fillColor=default;" vertex="1" parent="1">
          <mxGeometry x="630" y="190" width="50" height="30" as="geometry" />
        </mxCell>
        <mxCell id="UMy-mRe04MTnNOtKZiHi-119" value="1" style="rounded=0;whiteSpace=wrap;html=1;comic=1;fontFamily=Helvetica;fontSize=16;fontColor=#000000;startSize=0;strokeColor=default;fillColor=default;" vertex="1" parent="1">
          <mxGeometry x="630" y="220" width="50" height="30" as="geometry" />
        </mxCell>
        <mxCell id="UMy-mRe04MTnNOtKZiHi-120" value="1" style="rounded=0;whiteSpace=wrap;html=1;comic=1;fontFamily=Helvetica;fontSize=16;fontColor=#000000;startSize=0;strokeColor=default;fillColor=default;" vertex="1" parent="1">
          <mxGeometry x="630" y="250" width="50" height="30" as="geometry" />
        </mxCell>
        <mxCell id="UMy-mRe04MTnNOtKZiHi-122" value="" style="endArrow=classic;html=1;rounded=0;fontFamily=Helvetica;fontSize=16;fontColor=#000000;startSize=0;" edge="1" parent="1">
          <mxGeometry width="50" height="50" relative="1" as="geometry">
            <mxPoint x="80" y="470" as="sourcePoint" />
            <mxPoint x="400" y="470" as="targetPoint" />
            <Array as="points">
              <mxPoint x="120" y="430" />
              <mxPoint x="160" y="430" />
              <mxPoint x="200" y="430" />
              <mxPoint x="240" y="470" />
              <mxPoint x="280" y="430" />
              <mxPoint x="320" y="390" />
              <mxPoint x="360" y="350" />
            </Array>
          </mxGeometry>
        </mxCell>
        <mxCell id="UMy-mRe04MTnNOtKZiHi-123" value="从左向右" style="text;html=1;align=center;verticalAlign=middle;resizable=0;points=[];autosize=1;strokeColor=none;fillColor=none;fontSize=16;fontFamily=Helvetica;fontColor=#000000;" vertex="1" parent="1">
          <mxGeometry x="190" y="220" width="90" height="30" as="geometry" />
        </mxCell>
        <mxCell id="UMy-mRe04MTnNOtKZiHi-124" value="从右向左" style="text;html=1;align=center;verticalAlign=middle;resizable=0;points=[];autosize=1;strokeColor=none;fillColor=none;fontSize=16;fontFamily=Helvetica;fontColor=#000000;" vertex="1" parent="1">
          <mxGeometry x="190" y="250" width="90" height="30" as="geometry" />
        </mxCell>
        <mxCell id="UMy-mRe04MTnNOtKZiHi-125" value="右&amp;gt;左，右=左+1" style="text;html=1;align=center;verticalAlign=middle;resizable=0;points=[];autosize=1;strokeColor=none;fillColor=none;fontSize=16;fontFamily=Helvetica;fontColor=#000000;" vertex="1" parent="1">
          <mxGeometry x="680" y="220" width="140" height="30" as="geometry" />
        </mxCell>
        <mxCell id="UMy-mRe04MTnNOtKZiHi-126" value="左&amp;gt;右，左=右+1" style="text;html=1;align=center;verticalAlign=middle;resizable=0;points=[];autosize=1;strokeColor=none;fillColor=none;fontSize=16;fontFamily=Helvetica;fontColor=#000000;" vertex="1" parent="1">
          <mxGeometry x="680" y="250" width="140" height="30" as="geometry" />
        </mxCell>
        <mxCell id="UMy-mRe04MTnNOtKZiHi-128" value="如果左的糖果本来就多，则不改，&lt;br&gt;也就是3不改为1+1" style="text;html=1;align=center;verticalAlign=middle;resizable=0;points=[];autosize=1;strokeColor=none;fillColor=none;fontSize=16;fontFamily=Helvetica;fontColor=#000000;" vertex="1" parent="1">
          <mxGeometry x="480" y="300" width="260" height="50" as="geometry" />
        </mxCell>
      </root>
    </mxGraphModel>
  </diagram>
</mxfile>
